<?xml version="1.0" encoding="UTF-8"?>
<!-- Created with Inkscape (http://www.inkscape.org/) -->
<svg version="1.1" viewBox="0 0 502.99 340.14" xmlns="http://www.w3.org/2000/svg">
 <path d="m348.61 100.03c6.7093 0.35945 12.694 0.91976 16.939 1.78l0.35494 0.0704c5.6679 1.0911 10.746 2.966 15.826 5.8585 5.9877 3.4308 8.9939 6.6963 11.707 12.05 2.6051 5.1403 4.8364 13.451 4.8364 26.149 0 12.934-2.1842 21.402-4.4483 26.106l-0.0565 0.11736-0.0546 0.11932c-2.4419 5.1659-5.2099 8.3905-10.578 11.834l-0.01 6e-3 -8e-3 6e-3c-4.6781 3.0052-9.5685 4.998-15.619 6.1891l-0.0332 8e-3 -0.0312 6e-3c-4.9251 0.97869-11.52 1.5835-18.825 1.9541zm-348.61-100.03 106.08 292.31h29.061l16.998 47.824 16.998-47.824h27.605l48.462-133.54v133.54h92.046c21.587 0 39.806-1.3158 56.177-4.99 15.924-3.5525 31.05-9.5277 44.684-17.974l0.0312-0.02c19.994-12.415 36.199-30.377 47.459-51.525 11.644-21.689 17.388-46.226 17.388-71.428 0-26.016-5.201-50.82-16.828-72.498-11.169-20.824-27.605-38.424-47.592-50.954l-0.08-0.0509-0.08-0.0489c-12.772-7.9166-27.012-13.322-42.434-17.057-17.228-4.3042-36.372-5.7666-59.308-5.7666h-142.8l-41.724 117.4-41.724-117.4z" fill="#00d2f2" stop-color="#000000"/>
</svg>
