<?xml version="1.0" encoding="UTF-8" standalone="no"?>
<svg
   version="1.1"
   viewBox="0 0 381.21716 377.04169"
   id="svg14"
   width="381.21716"
   height="377.04169"
   xmlns:xlink="http://www.w3.org/1999/xlink"
   xmlns="http://www.w3.org/2000/svg"
   xmlns:svg="http://www.w3.org/2000/svg">
  <defs
     id="defs14">
    <linearGradient
       id="linearGradient24">
      <stop
         style="stop-color:#b074b5;stop-opacity:1;"
         offset="0"
         id="stop24" />
      <stop
         style="stop-color:#442447;stop-opacity:1;"
         offset="1"
         id="stop25" />
    </linearGradient>
    <linearGradient
       id="linearGradient22">
      <stop
         style="stop-color:#6dc4b0;stop-opacity:1;"
         offset="0"
         id="stop22" />
      <stop
         style="stop-color:#1e4d43;stop-opacity:1;"
         offset="1"
         id="stop23" />
    </linearGradient>
    <linearGradient
       xlink:href="#linearGradient22"
       id="linearGradient23"
       x1="573.11792"
       y1="441.27197"
       x2="694.54938"
       y2="441.27197"
       gradientUnits="userSpaceOnUse" />
    <linearGradient
       xlink:href="#linearGradient24"
       id="linearGradient25"
       x1="485.28339"
       y1="438.16187"
       x2="330.24237"
       y2="438.16187"
       gradientUnits="userSpaceOnUse" />
  </defs>
  <g
     id="path25"
     style="opacity:1">
    <path
       style="baseline-shift:baseline;display:inline;overflow:visible;vector-effect:none;enable-background:accumulate;stop-color:#000000;stop-opacity:1"
       d="M 195.71429,4.0687436 C 150.85317,2.8894036 108.24366,16.843114 72.823658,45.490624 c -17.12666,13.84666 -31.85302,31.33736 -44.17968,52.4707 -31.53,54.080006 -33.35993,123.219146 -2.16993,177.869146 5.82667,10.21333 11.18675,18.48078 16.08008,24.80078 23.7,30.57 56.48117,53.34008 93.451172,64.33008 31.04667,9.22666 62.01683,10.5569 92.91016,3.99023 35.73,-7.59 68.40961,-25.75961 94.34961,-51.34961 25.31333,-24.98 41.75984,-54.79784 49.33984,-89.45117 3.97,-18.16 5.58953,-36.41984 4.01953,-54.58984 -1.97,-22.8 -7.90984,-44.37992 -18.08984,-64.66992 -3.60667,-7.18668 -6.03263,-11.844046 -7.2793,-13.970716 -15.21333,-25.83333 -35.45093,-46.66161 -60.71093,-62.48828 -23.46,-14.69333 -48.62047,-23.6716404 -75.48047,-26.9316404 -6.48625,-0.7875 -12.94088,-1.26316 -19.34961,-1.43164 z"
       id="path5" />
    <path
       style="baseline-shift:baseline;display:inline;overflow:visible;vector-effect:none;fill:#e8e3d7;enable-background:accumulate;stop-color:#000000;stop-opacity:1"
       d="M 195.82031,0.0703125 C 150.06409,-1.1325586 106.45436,13.146356 70.308594,42.380859 52.773025,56.558117 37.730735,74.444015 25.189453,95.945312 v 0.002 h -0.002 C -7.0557405,151.25062 -8.943287,221.84262 23,277.8125 c 5.889486,10.32344 11.32916,18.73042 16.390625,25.26758 l 0.002,0.002 c 24.205021,31.22141 57.675203,54.47692 95.472652,65.71289 31.6417,9.4035 63.34891,10.77045 94.88086,4.06836 36.51428,-7.7566 69.86632,-26.3093 96.32813,-52.41406 25.82951,-25.48939 42.70176,-56.07804 50.4375,-91.44336 4.041,-18.4848 5.70775,-37.15503 4.09765,-55.78906 -2.01072,-23.27135 -8.08987,-45.37048 -18.5,-66.11914 -3.61845,-7.210165 -6.01209,-11.829579 -7.40234,-14.201176 l -0.004,-0.002 -0.002,-0.0039 C 339.17779,66.530812 318.45143,45.197613 292.66797,29.042969 268.7394,14.05617 242.98159,4.8593336 215.54687,1.5292969 h -0.002 C 208.93545,0.72689829 202.35558,0.24211912 195.82031,0.0703125 Z m -0.21094,7.9960938 c 6.28155,0.1651364 12.61029,0.631837 18.97266,1.4042968 26.28402,3.1900929 50.84743,11.9525869 73.83789,26.3515629 24.73654,15.498695 44.48539,35.820106 59.38867,61.126953 1.10382,1.883436 3.55713,6.576371 7.15039,13.736331 9.94988,19.83133 15.75042,40.8901 17.67969,63.21875 v 0.002 c 1.52991,17.70597 -0.0424,35.55542 -3.9414,53.39062 -7.42427,33.94135 -23.44505,62.98642 -48.24219,87.45704 -25.4182,25.07523 -57.42537,42.86175 -92.3711,50.28515 -30.25408,6.43079 -60.48844,5.13753 -90.93945,-3.91211 -36.14167,-10.74376 -68.232885,-33.02782 -91.427733,-62.94531 l -0.002,-0.002 C 40.990026,292.07706 35.712471,283.94982 29.949219,273.84766 h -0.002 C -0.48944741,220.51754 1.2828499,152.83322 32.099609,99.976562 44.211647,79.21118 58.62014,62.117625 75.337891,48.601562 h 0.002 C 110.03408,20.541046 151.64336,6.9105973 195.60937,8.0664063 Z"
       id="path6" />
  </g>
  <g
     id="g14"
     style="display:inline"
     transform="translate(-321.7154,-252.11875)">
    <path
       fill="#b074b5"
       d="m 403.98,406.97 c -2.0367,7.5838 -3.51945,39.4428 0.85,14.85 2.46143,-10.22501 6.89818,-22.46033 13.48,-29.45 -2.64174,9.29912 -7.6726,19.80021 -6.42,28.97 3.00372,-7.926 7.09187,-17.93881 12.29,-23.43 -2.81545,9.38298 -5.01706,19.70621 -5.31,29.2 2.72273,-8.0849 5.78638,-18.84727 11.29,-24.33 -2.09208,5.52977 -6.75026,36.87194 -0.42437,16.38578 2.76117,-7.61123 9.84508,-19.70313 4.94052,-3.24703 -1.94297,9.38719 -1.34646,18.7338 2.65385,3.99625 2.60902,-6.46465 7.12101,-13.22272 3.69578,-1.53125 -1.68843,8.90198 -0.53213,15.93492 3.41422,3.36875 9.85408,-19.55741 -0.11847,10.10121 1.69,16.4875 -1.29913,10.19761 3.97722,23.19643 4.55,31.23 -5.3143,-3.84948 -12.11282,-33.62581 -8.96672,-12.09313 1.61335,7.60064 5.38784,21.85549 -2.49767,6.51329 -3.42889,-7.23844 -7.56489,-22.81414 -4.4228,-4.61 1.83778,8.07068 7.19488,25.17014 -1.85984,7.92312 -2.85304,-3.18712 -7.76215,-24.58207 -5.31984,-8.39265 0.34887,6.46112 9.43002,30.65874 -0.86688,12.49562 -3.52365,-4.47482 -9.8623,-27.68581 -6.15656,-9.02641 0.94555,6.03434 9.53421,31.17907 -0.0705,13.92797 -3.60753,-6.06261 -6.1478,-14.29112 -9.04922,-19.78781 1.00403,9.74184 5.61959,21.39948 6.39,29.75 -9.99252,-8.21117 -13.46985,-43.05407 -15.59859,-42.42791 -1.91619,6.18897 4.54245,37.12762 -2.54641,16.18291 -2.38465,-7.37214 -6.49451,-27.6927 -4.89,-7.9225 0.0131,9.03881 2.72028,19.505 3.135,27.5375 -4.2184,-3.37339 -8.9398,-28.72528 -9.24562,-22.54359 0.63445,28.44264 13.99455,55.29492 31.59562,76.85359 -15.14471,-10.89103 -25.62158,-28.00402 -33.86429,-43.57524 5.77054,17.49019 15.921,33.61235 25.9679,48.55427 C 395.8617,526.74117 385.32792,507.14688 376.55,489.9 c 8.50764,26.71097 24.97982,50.67667 45.47,69.5 -32.03438,-21.40344 -54.96814,-56.41416 -61.05,-94.65 -0.23646,9.25564 4.51353,22.3347 7.79,32.5 8.63642,25.62277 26.33751,47.46747 43.66,67.17 -32.28908,-22.92936 -53.64171,-59.79173 -61.36492,-97.96978 6.21561,44.33593 32.11255,85.85762 67.15492,112.90978 -43.07711,-25.10066 -71.99325,-71.88931 -77.92983,-121.09831 -0.0195,17.50789 6.21031,36.35037 12.99333,53.00599 19.57012,46.83426 60.03181,84.27002 108.50326,99.60142 7.54356,3.37053 -16.06299,-4.19218 -14.68879,-3.48457 -74.22468,-25.83679 -125.47193,-105.9806 -115.8665,-184.3571 7.51335,-79.27933 74.2288,-150.99945 154.03223,-158.60962 -44.34821,9.70859 -86.08851,34.19092 -112.27642,71.84873 -18.48771,25.62793 -30.87867,56.78927 -33.15728,87.92346 6.48504,-43.15327 27.87942,-84.24645 62.35375,-111.54812 8.62033,-6.97286 19.27766,-14.19108 29.03625,-17.46188 -41.59321,24.35396 -71.78975,68.11125 -79.34,115.68 9.04941,-38.36559 32.19618,-75.63813 65.94,-95.88 -27.54006,22.56806 -48.04456,54.95346 -55.18,89.63 9.31692,-29.17427 26.72108,-57.71994 51.78,-75.01 -19.76577,19.38506 -35.25578,44.44038 -40.65,71.51 7.56014,-20.76142 18.96642,-42.44781 36.56,-55.33 -10.51677,12.87838 -20.854,29.24098 -23.38,44.72 1.86033,-7.53906 22.75798,-34.23235 21.63258,-28.1157 -11.57776,19.19152 -20.57986,41.00529 -20.44258,63.7257 0.60573,-5.50615 12.22996,-35.64589 8.61094,-15.48156 -1.28547,7.27801 -2.89658,32.50511 0.83422,11.4689 1.59262,-4.379 3.57305,-13.12592 6.40484,-15.12734 z"
       id="path13"
       style="display:inline;fill:url(#linearGradient25)" />
    <path
       fill="#6dc4b0"
       d="m 661.12,403.12 c -1.30085,-17.55732 -13.08641,-36.29189 -16.74,-50.44 12.39941,13.94225 20.43108,31.91795 26.59,48.76 -1.00288,-16.90406 -19.17616,-49.1335 -19.0741,-55.01156 15.09312,17.00059 24.2902,38.9291 29.9141,60.26156 -3.96136,-24.75554 -13.90429,-48.33624 -25.27172,-70.2738 28.14894,29.35758 39.75832,72.38654 37.79349,112.60397 -2.25912,35.00221 -13.00155,71.85075 -38.40177,97.11983 6.38365,-12.77881 14.41336,-28.04172 19.16152,-42.70031 2.52807,-7.68991 8.57843,-29.35264 6.82848,-30.14407 -5.50104,23.0229 -14.80838,46.58508 -31.61378,63.47521 9.34953,-20.07123 18.67213,-41.21298 21.07378,-63.63083 -4.54656,20.51315 -13.61378,42.31797 -28.04,56.81 7.33759,-15.90753 14.00419,-32.62504 16.85,-49.84 -5.5097,15.26546 -12.17229,32.27321 -24.03855,43.23617 5.50706,-10.20599 14.63651,-38.91413 13.10578,-41.36933 -2.96782,9.89535 -15.20235,33.69472 -19.30723,32.69191 4.72262,-11.78151 10.29084,-24.62235 10.98,-36.92875 -4.29267,11.39044 -10.22497,25.09106 -18.55,32.66 4.51193,-13.19654 10.08911,-26.74128 11.34,-40.67 -4.30141,11.50091 -9.96952,27.04158 -18.61,34.1 4.33282,-12.06788 9.92445,-26.46979 10.01,-38.23 -3.54504,11.48094 -8.75141,25.77423 -17.2,32.96 3.91133,-9.94659 11.12721,-36.79411 8.79875,-36.7075 -1.83767,6.00516 -12.80706,35.13735 -15.06875,27.5575 3.85632,-10.81132 7.67133,-23.22098 7.67,-34.14 -1.90523,8.57759 -11.32951,31.51712 -14.68741,29.7544 2.7905,-10.2623 6.40041,-22.11359 6.12741,-31.9944 -2.25199,7.66763 -8.83668,27.22412 -13.31,27.44 2.20755,-9.44189 6.42564,-21.69987 4.65,-30.3 -2.32309,8.82641 -5.80983,20.61139 -11.86,26.16 3.08032,-6.16608 7.35156,-41.91015 0.9725,-18.53562 -2.40643,7.77035 -12.07154,22.17204 -5.6825,5.37562 6.63951,-14.09903 -0.22798,-45.09778 0.6025,-50.55391 4.61938,3.7284 10.52447,26.64606 7.61812,7.82907 -2.06522,-8.67166 -4.10799,-20.61226 3.28157,-5.67813 3.81836,7.36824 7.68681,22.06569 4.76562,4.2968 -0.29288,-5.02433 -8.70784,-26.63503 0.60578,-11.82274 4.12677,5.67606 6.28231,14.11892 8.87641,19.61891 -0.5419,-10.43967 -5.18033,-21.31477 -6.57,-30.81 6.59485,3.4789 13.45404,28.5615 14.49562,25.52875 0.87235,-7.66805 -11.30883,-31.15719 -6.33562,-29.42125 6.01682,2.92058 14.85896,32.47807 15.15723,28.42359 C 616.66124,408.28117 610.624,395.08086 607.72,384.38 c 8.20369,5.97893 19.1486,34.41882 18.53913,31.28731 0.12467,-10.45163 -12.31962,-32.95757 -9.58585,-35.56808 8.48374,9.28106 13.30227,21.42604 17.95672,32.68077 -1.65693,-14.07654 -8.8746,-28.62926 -12.23,-41.04 9.63143,10.16306 15.3036,24.04704 20.8,36.35 -2.10343,-14.67718 -9.11315,-29.3374 -13.65,-42.47 10.84288,11.09989 17.46382,26.65782 22.48,40.56 -0.14848,-14.02958 -14.58388,-39.33367 -13.77,-45.19 10.45864,12.3102 17.77617,26.86731 22.86,42.13 z"
       id="path14"
       style="display:inline;fill:url(#linearGradient23)" />
  </g>
  <g
     fill="#e5e4e1"
     id="g3"
     style="display:inline"
     transform="translate(-321.7154,-252.11875)">
    <path
       style="display:inline;fill:#000000;fill-opacity:1;stroke:none;stroke-width:3.32863;stroke-dasharray:none;stroke-opacity:1"
       d="m 606.06275,477.41441 c -13.34772,33.1197 -40.72557,56.50322 -75.99225,63.26031 -34.80064,6.65723 -70.7996,-6.29108 -94.16648,-33.45256 q -30.04073,-34.91718 -24.73159,-79.73696 4.46034,-37.59669 33.26948,-63.42673 30.09067,-26.9784 72.56378,-25.04782 c 40.09315,1.83074 73.54572,24.63174 89.40658,61.363 q 15.89411,36.78117 -0.34952,77.04076 z"
       id="path36" />
  </g>
  <path
     d="m 187.73494,157.05859 -22.90469,62.9245 h -11.15653 l -22.90468,-62.9245 h 8.95903 l 19.73522,55.36004 19.73521,-55.36004 z m 62.7132,31.52564 q 0,8.5787 -3.7611,15.55152 -3.71884,6.97283 -9.931,10.81845 -4.31048,2.66236 -9.63518,3.84563 -5.28245,1.18326 -13.94566,1.18326 h -15.8896 v -62.9245 h 15.72056 q 9.21259,0 14.62181,1.35231 5.45149,1.31005 9.21259,3.63432 6.42345,4.01466 10.01552,10.69167 3.59206,6.67702 3.59206,15.84734 z m -8.74773,-0.12678 q 0,-7.39542 -2.57783,-12.46657 -2.57784,-5.07115 -7.69125,-7.98706 -3.71884,-2.11298 -7.90254,-2.91591 -4.18369,-0.84519 -10.01551,-0.84519 H 205.653 v 48.55625 h 7.86028 q 6.04311,0 10.52263,-0.88745 4.52177,-0.88746 8.28287,-3.29625 4.69082,-3.00043 7.01509,-7.90254 2.36654,-4.90211 2.36654,-12.25528 z"
     id="text35"
     style="font-size:86.5476px;fill:#f9b9b9;stroke:#e8e3d7;stroke-width:21.637"
     aria-label="VD" />
</svg>
